<svg xmlns="http://www.w3.org/2000/svg" viewBox="0 0 64 64">
  <defs>
    <linearGradient id="g1" x1="0%" y1="0%" x2="100%" y2="100%">
      <stop offset="0%" stop-color="#4db8ff"/>
      <stop offset="50%" stop-color="#1a8de8"/>
      <stop offset="100%" stop-color="#0a5eb0"/>
    </linearGradient>
    <linearGradient id="g2" x1="0%" y1="0%" x2="100%" y2="100%">
      <stop offset="0%" stop-color="#8dd6ff"/>
      <stop offset="100%" stop-color="#3aa5f0"/>
    </linearGradient>
  </defs>
  <rect width="64" height="64" rx="12" fill="#f0f8ff"/>
  <!-- Main swirl body -->
  <path d="M32 8 C48 8, 56 18, 54 30 C52 42, 42 48, 32 48 C22 48, 14 42, 14 32 C14 24, 20 18, 28 18 C36 18, 42 24, 40 32 C38 38, 34 40, 30 38" fill="none" stroke="url(#g1)" stroke-width="6" stroke-linecap="round"/>
  <!-- Outer splash -->
  <path d="M50 14 C56 10, 58 16, 54 18" fill="none" stroke="url(#g2)" stroke-width="3" stroke-linecap="round"/>
  <path d="M54 24 C60 22, 60 28, 56 28" fill="none" stroke="url(#g2)" stroke-width="2.5" stroke-linecap="round"/>
  <path d="M12 40 C6 42, 6 36, 10 36" fill="none" stroke="url(#g2)" stroke-width="2.5" stroke-linecap="round"/>
  <!-- Inner swirl detail -->
  <path d="M28 28 C30 26, 34 28, 32 32" fill="none" stroke="url(#g1)" stroke-width="3" stroke-linecap="round"/>
</svg>
